<svg width="145" height="143" viewBox="0 0 145 143" fill="none" xmlns="http://www.w3.org/2000/svg">
<path fill-rule="evenodd" clip-rule="evenodd" d="M144.945 59.2411V79.7145L132.235 79.8193C130.999 89.3456 127.375 98.4104 121.697 106.181L132.552 117.351L117.672 131.6L106.986 120.578C100.397 125.062 92.9616 128.17 85.1295 129.714V143H64.5589V130.029C55.7744 128.76 47.4017 125.497 40.0891 120.494L31.1527 129.316L16.5888 114.647L25.462 105.993C19.8756 98.2193 16.313 89.191 15.0924 79.7145H0.844727V59.2411H15.5983C17.4272 51.0933 21.0238 43.4409 26.1365 36.8187L17.8956 28.3318L32.7756 14.0821L41.2062 22.8205C48.1765 18.2143 56.1005 15.2276 64.3903 14.0821V0H84.9609V14.3964C93.3296 16.0545 101.239 19.493 108.145 24.476L118.683 14.1659L133.163 28.709L122.625 39.1867C126.756 45.2671 129.689 52.0725 131.266 59.2411H144.945ZM38.8035 72.1496C38.7802 91.211 54.3028 106.682 73.4742 106.705C82.6858 106.733 91.5294 103.113 98.0509 96.6445C104.572 90.1762 108.235 81.3922 108.229 72.2334C108.253 53.1721 92.7299 37.7011 73.5585 37.678C54.3871 37.6548 38.8268 53.0883 38.8035 72.1496Z" fill="#505F98"/>
</svg>
